<svg xmlns="http://www.w3.org/2000/svg" width="14" height="14" viewBox="0 0 14 14">
  <g id="question_fill" data-name="question fill" transform="translate(-291.014 -414.761)">
    <g id="타원_245" data-name="타원 245">
      <circle id="타원_251" data-name="타원 251" cx="7" cy="7" r="7" transform="translate(291.014 414.761)" fill="#fff"/>
      <circle id="타원_252" data-name="타원 252" cx="6.5" cy="6.5" r="6.5" transform="translate(291.514 415.261)" fill="#485777"/>
    </g>
    <g id="_" data-name=" " style="isolation: isolate">
      <g id="그룹_10104" data-name="그룹 10104" style="isolation: isolate">
        <path id="패스_18535" data-name="패스 18535" d="M298.282,421.008a1.18,1.18,0,0,0,.65-1.011.889.889,0,0,0-.949-.9.936.936,0,0,0-.976.94h-.949a1.764,1.764,0,0,1,1.925-1.731A1.714,1.714,0,0,1,299.891,420a1.686,1.686,0,0,1-.9,1.521,1.359,1.359,0,0,0-.747,1.353v.053h-.9v-.053A1.8,1.8,0,0,1,298.282,421.008Zm-.449,2.566a.624.624,0,1,1-.624.624A.624.624,0,0,1,297.833,423.574Z" fill="#fff"/>
      </g>
    </g>
  </g>
</svg>
